<?xml version="1.0" encoding="utf-8" standalone="no"?>
<!DOCTYPE svg PUBLIC "-//W3C//DTD SVG 1.1//EN"
  "http://www.w3.org/Graphics/SVG/1.1/DTD/svg11.dtd">
<svg xmlns:xlink="http://www.w3.org/1999/xlink" width="240.224192pt" height="232.085746pt" viewBox="0 0 240.224192 232.085746" xmlns="http://www.w3.org/2000/svg" version="1.1">
 <metadata>
  <rdf:RDF xmlns:dc="http://purl.org/dc/elements/1.1/" xmlns:cc="http://creativecommons.org/ns#" xmlns:rdf="http://www.w3.org/1999/02/22-rdf-syntax-ns#">
   <cc:Work>
    <dc:type rdf:resource="http://purl.org/dc/dcmitype/StillImage"/>
    <dc:date>2022-05-30T21:01:08.180588</dc:date>
    <dc:format>image/svg+xml</dc:format>
    <dc:creator>
     <cc:Agent>
      <dc:title>Matplotlib v3.5.0, https://matplotlib.org/</dc:title>
     </cc:Agent>
    </dc:creator>
   </cc:Work>
  </rdf:RDF>
 </metadata>
 <defs>
  <style type="text/css">*{stroke-linejoin: round; stroke-linecap: butt}</style>
 </defs>
 <g id="figure_1">
  <g id="patch_1">
   <path d="M 0 232.085746 
L 240.224192 232.085746 
L 240.224192 0 
L 0 0 
L 0 232.085746 
z
" style="fill: none"/>
  </g>
  <g id="patch_2">
   <path d="M 7.2 224.64 
L 224.64 224.64 
L 224.64 7.2 
L 7.2 7.2 
z
" style="fill: #ffffff"/>
  </g>
  <g id="pane3d_1">
   <g id="patch_3">
    <path d="M 23.61822 171.026264 
L 95.424009 110.837228 
L 94.42584 24.033878 
L 19.183773 78.942111 
" style="fill: #f2f2f2; opacity: 0.5; stroke: #f2f2f2; stroke-linejoin: miter"/>
   </g>
  </g>
  <g id="pane3d_2">
   <g id="patch_4">
    <path d="M 95.424009 110.837228 
L 210.64668 144.32791 
L 214.758571 54.534718 
L 94.42584 24.033878 
" style="fill: #e6e6e6; opacity: 0.5; stroke: #e6e6e6; stroke-linejoin: miter"/>
   </g>
  </g>
  <g id="pane3d_3">
   <g id="patch_5">
    <path d="M 23.61822 171.026264 
L 145.759879 210.91773 
L 210.64668 144.32791 
L 95.424009 110.837228 
" style="fill: #ececec; opacity: 0.5; stroke: #ececec; stroke-linejoin: miter"/>
   </g>
  </g>
  <g id="axis3d_1">
   <g id="line2d_1">
    <path d="M 23.61822 171.026264 
L 145.759879 210.91773 
" style="fill: none; stroke: #000000; stroke-width: 0.8; stroke-linecap: square"/>
   </g>
   <g id="Line3DCollection_1">
    <path d="M 31.01307 173.441423 
L 102.428952 112.873289 
L 101.726957 25.884498 
" style="fill: none; stroke: #b0b0b0; stroke-width: 0.8"/>
    <path d="M 56.749941 181.847084 
L 126.779571 119.951052 
L 127.121711 32.321328 
" style="fill: none; stroke: #b0b0b0; stroke-width: 0.8"/>
    <path d="M 83.078989 190.446152 
L 151.643587 127.17804 
L 153.075255 38.899795 
" style="fill: none; stroke: #b0b0b0; stroke-width: 0.8"/>
    <path d="M 110.020891 199.245377 
L 177.037407 134.559021 
L 179.606239 45.624626 
" style="fill: none; stroke: #b0b0b0; stroke-width: 0.8"/>
    <path d="M 137.597296 208.251831 
L 202.978149 142.09897 
L 206.734149 52.500761 
" style="fill: none; stroke: #b0b0b0; stroke-width: 0.8"/>
   </g>
   <g id="xtick_1">
    <g id="line2d_2">
     <path d="M 31.634956 172.913999 
L 29.766631 174.498534 
" style="fill: none; stroke: #000000; stroke-width: 0.8; stroke-linecap: square"/>
    </g>
   </g>
   <g id="xtick_2">
    <g id="line2d_3">
     <path d="M 57.360318 181.307599 
L 55.526537 182.928396 
" style="fill: none; stroke: #000000; stroke-width: 0.8; stroke-linecap: square"/>
    </g>
   </g>
   <g id="xtick_3">
    <g id="line2d_4">
     <path d="M 83.677161 189.894187 
L 81.880018 191.552504 
" style="fill: none; stroke: #000000; stroke-width: 0.8; stroke-linecap: square"/>
    </g>
   </g>
   <g id="xtick_4">
    <g id="line2d_5">
     <path d="M 110.606122 198.680494 
L 108.847829 200.377651 
" style="fill: none; stroke: #000000; stroke-width: 0.8; stroke-linecap: square"/>
    </g>
   </g>
   <g id="xtick_5">
    <g id="line2d_6">
     <path d="M 138.168807 207.673571 
L 136.451705 209.410948 
" style="fill: none; stroke: #000000; stroke-width: 0.8; stroke-linecap: square"/>
    </g>
   </g>
  </g>
  <g id="axis3d_2">
   <g id="line2d_7">
    <path d="M 210.64668 144.32791 
L 145.759879 210.91773 
" style="fill: none; stroke: #000000; stroke-width: 0.8; stroke-linecap: square"/>
   </g>
   <g id="Line3DCollection_2">
    <path d="M 24.384652 75.146746 
L 28.564061 166.880562 
L 150.247562 206.312263 
" style="fill: none; stroke: #b0b0b0; stroke-width: 0.8"/>
    <path d="M 41.768917 62.460502 
L 45.114675 153.007509 
L 165.245142 190.921056 
" style="fill: none; stroke: #b0b0b0; stroke-width: 0.8"/>
    <path d="M 58.478167 50.266852 
L 61.050017 139.650189 
L 179.656345 176.131617 
" style="fill: none; stroke: #b0b0b0; stroke-width: 0.8"/>
    <path d="M 74.550969 38.537653 
L 76.403771 126.780368 
L 193.5149 161.90933 
" style="fill: none; stroke: #b0b0b0; stroke-width: 0.8"/>
    <path d="M 90.023006 27.246865 
L 91.207205 114.371837 
L 206.851999 148.222186 
" style="fill: none; stroke: #b0b0b0; stroke-width: 0.8"/>
   </g>
   <g id="xtick_6">
    <g id="line2d_8">
     <path d="M 149.222131 205.979971 
L 152.301075 206.977707 
" style="fill: none; stroke: #000000; stroke-width: 0.8; stroke-linecap: square"/>
    </g>
   </g>
   <g id="xtick_7">
    <g id="line2d_9">
     <path d="M 164.233822 190.60188 
L 167.270347 191.560217 
" style="fill: none; stroke: #000000; stroke-width: 0.8; stroke-linecap: square"/>
    </g>
   </g>
   <g id="xtick_8">
    <g id="line2d_10">
     <path d="M 178.658825 175.824796 
L 181.653863 176.746022 
" style="fill: none; stroke: #000000; stroke-width: 0.8; stroke-linecap: square"/>
    </g>
   </g>
   <g id="xtick_9">
    <g id="line2d_11">
     <path d="M 192.530876 161.61416 
L 195.485346 162.50039 
" style="fill: none; stroke: #000000; stroke-width: 0.8; stroke-linecap: square"/>
    </g>
   </g>
   <g id="xtick_10">
    <g id="line2d_12">
     <path d="M 205.881172 147.938015 
L 208.795976 148.791206 
" style="fill: none; stroke: #000000; stroke-width: 0.8; stroke-linecap: square"/>
    </g>
   </g>
  </g>
  <g id="axis3d_3">
   <g id="line2d_13">
    <path d="M 210.64668 144.32791 
L 214.758571 54.534718 
" style="fill: none; stroke: #000000; stroke-width: 0.8; stroke-linecap: square"/>
   </g>
   <g id="Line3DCollection_3">
    <path d="M 211.244464 131.273841 
L 95.278634 98.195036 
L 22.974471 157.658416 
" style="fill: none; stroke: #b0b0b0; stroke-width: 0.8"/>
    <path d="M 211.945661 115.961483 
L 95.108223 83.375701 
L 22.218956 141.969648 
" style="fill: none; stroke: #b0b0b0; stroke-width: 0.8"/>
    <path d="M 212.657584 100.414911 
L 94.935332 68.340609 
L 21.45144 126.031677 
" style="fill: none; stroke: #b0b0b0; stroke-width: 0.8"/>
    <path d="M 213.38048 84.628709 
L 94.759904 53.085012 
L 20.671635 109.838519 
" style="fill: none; stroke: #b0b0b0; stroke-width: 0.8"/>
    <path d="M 214.114605 68.597293 
L 94.581885 37.604025 
L 19.879243 93.383995 
" style="fill: none; stroke: #b0b0b0; stroke-width: 0.8"/>
   </g>
   <g id="xtick_11">
    <g id="line2d_14">
     <path d="M 210.270895 130.996134 
L 213.193933 131.829919 
" style="fill: none; stroke: #000000; stroke-width: 0.8; stroke-linecap: square"/>
    </g>
   </g>
   <g id="xtick_12">
    <g id="line2d_15">
     <path d="M 210.964424 115.687818 
L 213.910502 116.509474 
" style="fill: none; stroke: #000000; stroke-width: 0.8; stroke-linecap: square"/>
    </g>
   </g>
   <g id="xtick_13">
    <g id="line2d_16">
     <path d="M 211.668557 100.145443 
L 214.638041 100.954501 
" style="fill: none; stroke: #000000; stroke-width: 0.8; stroke-linecap: square"/>
    </g>
   </g>
   <g id="xtick_14">
    <g id="line2d_17">
     <path d="M 212.383539 84.363601 
L 215.376802 85.159573 
" style="fill: none; stroke: #000000; stroke-width: 0.8; stroke-linecap: square"/>
    </g>
   </g>
   <g id="xtick_15">
    <g id="line2d_18">
     <path d="M 213.109623 68.336714 
L 216.127049 69.119093 
" style="fill: none; stroke: #000000; stroke-width: 0.8; stroke-linecap: square"/>
    </g>
   </g>
  </g>
  <g id="axes_1">
   <g id="line2d_19">
    <path d="M 121.81403 184.968787 
L 123.077817 184.770088 
L 124.339848 184.557275 
L 125.599538 184.330383 
L 126.8563 184.089453 
L 128.109553 183.834532 
L 129.358715 183.565677 
L 130.603208 183.282949 
L 131.842458 182.98642 
L 133.07589 182.676166 
L 134.302938 182.35227 
L 135.523036 182.014825 
L 136.735622 181.663926 
L 137.940143 181.29968 
L 139.136045 180.922197 
L 140.322785 180.531596 
L 141.49982 180.128 
L 142.666618 179.711541 
L 143.822649 179.282355 
L 144.967392 178.840587 
L 146.100332 178.386385 
L 147.220962 177.919905 
L 148.328781 177.441308 
L 149.423297 176.950762 
L 150.504023 176.448439 
L 151.570485 175.934518 
L 152.622213 175.409182 
L 153.658748 174.872619 
L 154.67964 174.325024 
L 155.684446 173.766595 
L 156.672735 173.197535 
L 157.644084 172.618054 
L 158.598081 172.028363 
L 159.534321 171.42868 
L 160.452412 170.819225 
L 161.351973 170.200224 
L 162.23263 169.571905 
L 163.094021 168.934502 
L 163.935797 168.28825 
L 164.757617 167.633389 
L 165.559153 166.970162 
L 166.340085 166.298814 
L 167.100108 165.619595 
L 167.838926 164.932755 
L 168.556255 164.238548 
L 169.251822 163.537231 
L 169.925366 162.829063 
L 170.576637 162.114304 
L 171.205398 161.393216 
L 171.811422 160.666064 
L 172.394494 159.933113 
L 172.954411 159.194631 
L 173.490982 158.450887 
L 174.004027 157.702149 
L 174.493378 156.948689 
L 174.958879 156.190778 
L 175.400385 155.428688 
L 175.817763 154.662691 
L 176.21089 153.893061 
L 176.579659 153.12007 
L 176.923969 152.343991 
L 177.243734 151.565098 
L 177.538878 150.783664 
L 177.809336 149.999961 
L 178.055056 149.214261 
L 178.275995 148.426835 
L 178.472122 147.637954 
L 178.643417 146.847889 
L 178.789871 146.056907 
L 178.911485 145.265277 
L 179.008271 144.473265 
L 179.080251 143.681136 
L 179.12746 142.889154 
L 179.149939 142.097581 
L 179.147743 141.306678 
L 179.120934 140.516704 
L 179.069587 139.727914 
L 178.993784 138.940566 
L 178.893617 138.15491 
L 178.769189 137.371199 
L 178.620612 136.58968 
L 178.448005 135.8106 
L 178.251499 135.034202 
L 178.031232 134.260729 
L 177.787352 133.490419 
L 177.520014 132.723508 
L 177.229382 131.96023 
L 176.91563 131.200816 
L 176.578937 130.445494 
L 176.219493 129.694489 
L 175.837494 128.948023 
L 175.433143 128.206316 
L 175.006653 127.469584 
L 174.558243 126.73804 
L 174.088138 126.011894 
L 173.596571 125.291353 
L 173.083783 124.576621 
L 172.55002 123.867899 
L 171.995535 123.165382 
L 171.420588 122.469266 
" clip-path="url(#p10249b1ab5)" style="fill: none; stroke: #808080; stroke-width: 3; stroke-linecap: square"/>
   </g>
   <g id="line2d_20">
    <path d="M 171.420588 122.469266 
L 171.318914 122.063738 
L 171.217228 121.658163 
L 171.115531 121.252542 
L 171.013822 120.846874 
L 170.912101 120.441159 
L 170.810369 120.035398 
L 170.708625 119.629591 
L 170.606869 119.223737 
L 170.505102 118.817836 
L 170.403322 118.411889 
L 170.301532 118.005895 
L 170.199729 117.599855 
L 170.097915 117.193768 
L 169.996089 116.787635 
L 169.894252 116.381454 
L 169.792402 115.975228 
L 169.690542 115.568954 
L 169.588669 115.162634 
L 169.486785 114.756268 
L 169.384889 114.349854 
L 169.282981 113.943394 
L 169.181062 113.536888 
L 169.079131 113.130334 
L 168.977188 112.723734 
L 168.875233 112.317088 
L 168.773267 111.910394 
L 168.671289 111.503654 
L 168.5693 111.096867 
L 168.467298 110.690034 
L 168.365285 110.283153 
L 168.26326 109.876226 
L 168.161224 109.469253 
L 168.059176 109.062232 
L 167.957116 108.655165 
L 167.855044 108.248051 
L 167.752961 107.84089 
L 167.650866 107.433682 
L 167.548759 107.026428 
L 167.44664 106.619127 
L 167.34451 106.211779 
L 167.242368 105.804384 
L 167.140214 105.396942 
L 167.038048 104.989454 
L 166.935871 104.581918 
L 166.833682 104.174336 
L 166.731481 103.766707 
L 166.629269 103.359031 
L 166.527044 102.951308 
L 166.424808 102.543539 
L 166.322561 102.135722 
L 166.220301 101.727858 
L 166.11803 101.319948 
L 166.015747 100.911991 
L 165.913452 100.503986 
L 165.811145 100.095935 
L 165.708827 99.687837 
L 165.606497 99.279692 
L 165.504155 98.8715 
L 165.401801 98.463261 
L 165.299435 98.054975 
L 165.197058 97.646642 
L 165.094669 97.238262 
L 164.992268 96.829835 
L 164.889856 96.421361 
L 164.787431 96.01284 
L 164.684995 95.604272 
L 164.582547 95.195657 
L 164.480087 94.786995 
L 164.377616 94.378286 
L 164.275132 93.96953 
L 164.172637 93.560727 
L 164.07013 93.151877 
L 163.967611 92.742979 
L 163.865081 92.334035 
L 163.762538 91.925043 
L 163.659984 91.516005 
L 163.557418 91.106919 
L 163.45484 90.697786 
L 163.352251 90.288606 
L 163.249649 89.879379 
L 163.147036 89.470104 
L 163.044411 89.060783 
L 162.941774 88.651414 
L 162.839125 88.241999 
L 162.736465 87.832536 
L 162.633792 87.423025 
L 162.531108 87.013468 
L 162.428412 86.603864 
L 162.325704 86.194212 
L 162.222984 85.784513 
L 162.120253 85.374767 
L 162.017509 84.964973 
L 161.914754 84.555133 
L 161.811987 84.145245 
L 161.709208 83.73531 
L 161.606417 83.325327 
L 161.503614 82.915297 
L 161.4008 82.50522 
L 161.297973 82.095096 
" clip-path="url(#p10249b1ab5)" style="fill: none; stroke-dasharray: 7.4,3.2; stroke-dashoffset: 0; stroke: #800080; stroke-width: 2"/>
   </g>
   <g id="line2d_21">
    <path d="M 161.297973 82.095096 
L 159.669827 81.060059 
L 157.989744 80.055771 
L 156.259995 79.083 
L 154.482895 78.142472 
L 152.660796 77.234871 
L 150.796089 76.360842 
L 148.891194 75.520985 
L 146.948565 74.715861 
L 144.970686 73.945991 
L 142.960066 73.21185 
L 140.919236 72.513877 
L 138.850755 71.852467 
L 136.757197 71.227975 
L 134.641157 70.640716 
L 132.505246 70.090964 
L 130.352087 69.578951 
L 128.184319 69.104871 
L 126.004589 68.668876 
L 123.815553 68.271079 
L 121.619875 67.911554 
L 119.420224 67.590331 
L 117.219272 67.307406 
L 115.019692 67.062731 
L 112.82416 66.856219 
L 110.635346 66.687744 
L 108.455919 66.557142 
L 106.288544 66.464207 
L 104.135875 66.408695 
L 102.00056 66.390322 
L 99.885236 66.408764 
L 97.792527 66.46366 
L 95.725042 66.554606 
L 93.685374 66.681162 
L 91.676096 66.842848 
L 89.699763 67.039141 
L 87.758904 67.269485 
L 85.856026 67.533279 
L 83.993605 67.829886 
L 82.174091 68.158629 
L 80.399899 68.518792 
L 78.67341 68.90962 
L 76.996968 69.330318 
L 75.372878 69.780053 
L 73.803399 70.257956 
L 72.290748 70.763115 
L 70.83709 71.294583 
L 69.444541 71.851375 
L 68.11516 72.432468 
L 66.85095 73.036802 
L 65.653852 73.663281 
L 64.525742 74.310772 
L 63.468429 74.978109 
L 62.483649 75.664088 
L 61.573064 76.367474 
L 60.738259 77.086997 
L 59.980735 77.821356 
L 59.301908 78.569218 
L 58.703105 79.32922 
L 58.185559 80.099972 
L 57.750407 80.880053 
L 57.398688 81.668018 
L 57.131333 82.462398 
L 56.94917 83.2617 
L 56.852913 84.064408 
L 56.843163 84.86899 
L 56.920404 85.673894 
L 57.084999 86.477553 
L 57.337188 87.278386 
L 57.677083 88.074802 
L 58.104668 88.865201 
L 58.619793 89.647976 
L 59.222177 90.421518 
L 59.9114 91.184215 
L 60.686904 91.934458 
L 61.547993 92.670642 
L 62.493828 93.39117 
L 63.523427 94.094455 
L 64.635668 94.778924 
L 65.829283 95.443022 
L 67.102862 96.08521 
L 68.45485 96.703978 
L 69.883551 97.297837 
L 71.387128 97.86533 
L 72.963603 98.405034 
L 74.610861 98.91556 
L 76.326649 99.395561 
L 78.108583 99.84373 
L 79.954149 100.258806 
L 81.860705 100.63958 
L 83.825487 100.984892 
L 85.845613 101.293638 
L 87.918088 101.564772 
L 90.039808 101.797307 
L 92.207566 101.990322 
L 94.418058 102.142958 
L 96.66789 102.254428 
L 98.953583 102.324011 
L 101.271582 102.351062 
L 103.618259 102.335006 
" clip-path="url(#p10249b1ab5)" style="fill: none; stroke: #0000ff; stroke-width: 3; stroke-linecap: square"/>
   </g>
   <g id="Path3DCollection_1">
    <defs>
     <path id="m792bbee7d2" d="M 0 3.535534 
C 0.937635 3.535534 1.836992 3.163008 2.5 2.5 
C 3.163008 1.836992 3.535534 0.937635 3.535534 0 
C 3.535534 -0.937635 3.163008 -1.836992 2.5 -2.5 
C 1.836992 -3.163008 0.937635 -3.535534 0 -3.535534 
C -0.937635 -3.535534 -1.836992 -3.163008 -2.5 -2.5 
C -3.163008 -1.836992 -3.535534 -0.937635 -3.535534 0 
C -3.535534 0.937635 -3.163008 1.836992 -2.5 2.5 
C -1.836992 3.163008 -0.937635 3.535534 0 3.535534 
z
" style="stroke: #000000"/>
    </defs>
    <g clip-path="url(#p10249b1ab5)">
     <use xlink:href="#m792bbee7d2" x="171.420588" y="122.469266" style="stroke: #000000"/>
    </g>
   </g>
   <g id="text_1">
    <!-- $t_0$ -->
    <g transform="translate(121.825893 177.086289)scale(0.2 -0.2)">
     <defs>
      <path id="DejaVuSans-Oblique-74" d="M 2706 3500 
L 2619 3053 
L 1472 3053 
L 1100 1153 
Q 1081 1047 1072 975 
Q 1063 903 1063 863 
Q 1063 663 1183 572 
Q 1303 481 1569 481 
L 2150 481 
L 2053 0 
L 1503 0 
Q 991 0 739 200 
Q 488 400 488 806 
Q 488 878 497 964 
Q 506 1050 525 1153 
L 897 3053 
L 409 3053 
L 500 3500 
L 978 3500 
L 1172 4494 
L 1747 4494 
L 1556 3500 
L 2706 3500 
z
" transform="scale(0.015625)"/>
      <path id="DejaVuSans-30" d="M 2034 4250 
Q 1547 4250 1301 3770 
Q 1056 3291 1056 2328 
Q 1056 1369 1301 889 
Q 1547 409 2034 409 
Q 2525 409 2770 889 
Q 3016 1369 3016 2328 
Q 3016 3291 2770 3770 
Q 2525 4250 2034 4250 
z
M 2034 4750 
Q 2819 4750 3233 4129 
Q 3647 3509 3647 2328 
Q 3647 1150 3233 529 
Q 2819 -91 2034 -91 
Q 1250 -91 836 529 
Q 422 1150 422 2328 
Q 422 3509 836 4129 
Q 1250 4750 2034 4750 
z
" transform="scale(0.015625)"/>
     </defs>
     <use xlink:href="#DejaVuSans-Oblique-74" transform="translate(0 0.78125)"/>
     <use xlink:href="#DejaVuSans-30" transform="translate(39.208984 -15.625)scale(0.7)"/>
    </g>
   </g>
   <g id="text_2">
    <!-- $t_1^-$ -->
    <g transform="translate(171.619716 114.792859)scale(0.2 -0.2)">
     <defs>
      <path id="DejaVuSans-2212" d="M 678 2272 
L 4684 2272 
L 4684 1741 
L 678 1741 
L 678 2272 
z
" transform="scale(0.015625)"/>
      <path id="DejaVuSans-31" d="M 794 531 
L 1825 531 
L 1825 4091 
L 703 3866 
L 703 4441 
L 1819 4666 
L 2450 4666 
L 2450 531 
L 3481 531 
L 3481 0 
L 794 0 
L 794 531 
z
" transform="scale(0.015625)"/>
     </defs>
     <use xlink:href="#DejaVuSans-Oblique-74" transform="translate(0 0.78125)"/>
     <use xlink:href="#DejaVuSans-2212" transform="translate(59.487201 39.0625)scale(0.7)"/>
     <use xlink:href="#DejaVuSans-31" transform="translate(39.208984 -26.5625)scale(0.7)"/>
    </g>
   </g>
   <g id="text_3">
    <!-- $t_1^+$ -->
    <g transform="translate(161.459674 74.220871)scale(0.2 -0.2)">
     <defs>
      <path id="DejaVuSans-2b" d="M 2944 4013 
L 2944 2272 
L 4684 2272 
L 4684 1741 
L 2944 1741 
L 2944 0 
L 2419 0 
L 2419 1741 
L 678 1741 
L 678 2272 
L 2419 2272 
L 2419 4013 
L 2944 4013 
z
" transform="scale(0.015625)"/>
     </defs>
     <use xlink:href="#DejaVuSans-Oblique-74" transform="translate(0 0.826562)"/>
     <use xlink:href="#DejaVuSans-2b" transform="translate(59.487201 39.107813)scale(0.7)"/>
     <use xlink:href="#DejaVuSans-31" transform="translate(39.208984 -26.517188)scale(0.7)"/>
    </g>
   </g>
   <g id="text_4">
    <!-- $t_2$ -->
    <g transform="translate(103.55461 93.788299)scale(0.2 -0.2)">
     <defs>
      <path id="DejaVuSans-32" d="M 1228 531 
L 3431 531 
L 3431 0 
L 469 0 
L 469 531 
Q 828 903 1448 1529 
Q 2069 2156 2228 2338 
Q 2531 2678 2651 2914 
Q 2772 3150 2772 3378 
Q 2772 3750 2511 3984 
Q 2250 4219 1831 4219 
Q 1534 4219 1204 4116 
Q 875 4013 500 3803 
L 500 4441 
Q 881 4594 1212 4672 
Q 1544 4750 1819 4750 
Q 2544 4750 2975 4387 
Q 3406 4025 3406 3419 
Q 3406 3131 3298 2873 
Q 3191 2616 2906 2266 
Q 2828 2175 2409 1742 
Q 1991 1309 1228 531 
z
" transform="scale(0.015625)"/>
     </defs>
     <use xlink:href="#DejaVuSans-Oblique-74" transform="translate(0 0.78125)"/>
     <use xlink:href="#DejaVuSans-32" transform="translate(39.208984 -15.625)scale(0.7)"/>
    </g>
   </g>
   <g id="text_5">
    <!-- $\mathbf{h}(t)$ -->
    <g transform="translate(7.2 50.688)scale(0.2 -0.2)">
     <defs>
      <path id="DejaVuSans-Bold-68" d="M 4056 2131 
L 4056 0 
L 2931 0 
L 2931 347 
L 2931 1625 
Q 2931 2084 2911 2256 
Q 2891 2428 2841 2509 
Q 2775 2619 2662 2680 
Q 2550 2741 2406 2741 
Q 2056 2741 1856 2470 
Q 1656 2200 1656 1722 
L 1656 0 
L 538 0 
L 538 4863 
L 1656 4863 
L 1656 2988 
Q 1909 3294 2193 3439 
Q 2478 3584 2822 3584 
Q 3428 3584 3742 3212 
Q 4056 2841 4056 2131 
z
" transform="scale(0.015625)"/>
      <path id="DejaVuSans-28" d="M 1984 4856 
Q 1566 4138 1362 3434 
Q 1159 2731 1159 2009 
Q 1159 1288 1364 580 
Q 1569 -128 1984 -844 
L 1484 -844 
Q 1016 -109 783 600 
Q 550 1309 550 2009 
Q 550 2706 781 3412 
Q 1013 4119 1484 4856 
L 1984 4856 
z
" transform="scale(0.015625)"/>
      <path id="DejaVuSans-29" d="M 513 4856 
L 1013 4856 
Q 1481 4119 1714 3412 
Q 1947 2706 1947 2009 
Q 1947 1309 1714 600 
Q 1481 -109 1013 -844 
L 513 -844 
Q 928 -128 1133 580 
Q 1338 1288 1338 2009 
Q 1338 2731 1133 3434 
Q 928 4138 513 4856 
z
" transform="scale(0.015625)"/>
     </defs>
     <use xlink:href="#DejaVuSans-Bold-68" transform="translate(0 0.015625)"/>
     <use xlink:href="#DejaVuSans-28" transform="translate(71.191406 0.015625)"/>
     <use xlink:href="#DejaVuSans-Oblique-74" transform="translate(110.205078 0.015625)"/>
     <use xlink:href="#DejaVuSans-29" transform="translate(149.414062 0.015625)"/>
    </g>
   </g>
   <g id="Path3DCollection_2">
    <g clip-path="url(#p10249b1ab5)">
     <use xlink:href="#m792bbee7d2" x="161.297973" y="82.095096" style="stroke: #000000"/>
    </g>
   </g>
   <g id="Path3DCollection_3">
    <g clip-path="url(#p10249b1ab5)">
     <use xlink:href="#m792bbee7d2" x="121.81403" y="184.968787" style="stroke: #000000"/>
    </g>
   </g>
   <g id="Path3DCollection_4">
    <g clip-path="url(#p10249b1ab5)">
     <use xlink:href="#m792bbee7d2" x="103.618259" y="102.335006" style="stroke: #000000"/>
    </g>
   </g>
  </g>
 </g>
 <defs>
  <clipPath id="p10249b1ab5">
   <rect x="7.2" y="7.2" width="217.44" height="217.44"/>
  </clipPath>
 </defs>
</svg>
