<?xml version="1.0" encoding="utf-8" standalone="no"?>
<!DOCTYPE svg PUBLIC "-//W3C//DTD SVG 1.1//EN"
  "http://www.w3.org/Graphics/SVG/1.1/DTD/svg11.dtd">
<svg xmlns:xlink="http://www.w3.org/1999/xlink" width="286.553345pt" height="280.512pt" viewBox="0 0 286.553345 280.512" xmlns="http://www.w3.org/2000/svg" version="1.1">
 <metadata>
  <rdf:RDF xmlns:dc="http://purl.org/dc/elements/1.1/" xmlns:cc="http://creativecommons.org/ns#" xmlns:rdf="http://www.w3.org/1999/02/22-rdf-syntax-ns#">
   <cc:Work>
    <dc:type rdf:resource="http://purl.org/dc/dcmitype/StillImage"/>
    <dc:date>2024-01-10T11:55:10.557452</dc:date>
    <dc:format>image/svg+xml</dc:format>
    <dc:creator>
     <cc:Agent>
      <dc:title>Matplotlib v3.5.0, https://matplotlib.org/</dc:title>
     </cc:Agent>
    </dc:creator>
   </cc:Work>
  </rdf:RDF>
 </metadata>
 <defs>
  <style type="text/css">*{stroke-linejoin: round; stroke-linecap: butt}</style>
 </defs>
 <g id="figure_1">
  <g id="patch_1">
   <path d="M 0 280.512 
L 286.553345 280.512 
L 286.553345 0 
L 0 0 
z
" style="fill: #ffffff"/>
  </g>
  <g id="patch_2">
   <path d="M 7.2 273.312 
L 273.312 273.312 
L 273.312 7.2 
L 7.2 7.2 
z
" style="fill: #ffffff"/>
  </g>
  <g id="pane3d_1">
   <g id="patch_3">
    <path d="M 27.293291 207.697309 
L 115.172164 134.035495 
L 113.950564 27.801991 
L 21.866234 95.000941 
" style="fill: #f2f2f2; opacity: 0.5; stroke: #f2f2f2; stroke-linejoin: miter"/>
   </g>
  </g>
  <g id="pane3d_2">
   <g id="patch_4">
    <path d="M 115.172164 134.035495 
L 256.186401 175.022766 
L 261.218702 65.130171 
L 113.950564 27.801991 
" style="fill: #e6e6e6; opacity: 0.5; stroke: #e6e6e6; stroke-linejoin: miter"/>
   </g>
  </g>
  <g id="pane3d_3">
   <g id="patch_5">
    <path d="M 27.293291 207.697309 
L 176.775269 256.518123 
L 256.186401 175.022766 
L 115.172164 134.035495 
" style="fill: #ececec; opacity: 0.5; stroke: #ececec; stroke-linejoin: miter"/>
   </g>
  </g>
  <g id="axis3d_1">
   <g id="line2d_1">
    <path d="M 27.293291 207.697309 
L 176.775269 256.518123 
" style="fill: none; stroke: #000000; stroke-width: 0.8; stroke-linecap: square"/>
   </g>
   <g id="Line3DCollection_1">
    <path d="M 36.343413 210.653079 
L 123.745102 136.527309 
L 122.885971 30.066856 
" style="fill: none; stroke: #b0b0b0; stroke-width: 0.8"/>
    <path d="M 67.841252 220.940273 
L 153.546389 145.189367 
L 153.965114 37.944513 
" style="fill: none; stroke: #b0b0b0; stroke-width: 0.8"/>
    <path d="M 100.063822 231.464164 
L 183.975992 154.034051 
L 185.728127 45.995511 
" style="fill: none; stroke: #b0b0b0; stroke-width: 0.8"/>
    <path d="M 133.036428 242.233017 
L 215.053992 163.067199 
L 218.197834 54.225635 
" style="fill: none; stroke: #b0b0b0; stroke-width: 0.8"/>
    <path d="M 166.785565 253.255485 
L 246.801337 172.294899 
L 251.398084 62.640931 
" style="fill: none; stroke: #b0b0b0; stroke-width: 0.8"/>
   </g>
   <g id="xtick_1">
    <g id="line2d_2">
     <path d="M 37.104502 210.007596 
L 34.81797 211.946815 
" style="fill: none; stroke: #000000; stroke-width: 0.8; stroke-linecap: square"/>
    </g>
   </g>
   <g id="xtick_2">
    <g id="line2d_3">
     <path d="M 68.588257 220.280029 
L 66.344 222.263626 
" style="fill: none; stroke: #000000; stroke-width: 0.8; stroke-linecap: square"/>
    </g>
   </g>
   <g id="xtick_3">
    <g id="line2d_4">
     <path d="M 100.79589 230.788647 
L 98.596472 232.818164 
" style="fill: none; stroke: #000000; stroke-width: 0.8; stroke-linecap: square"/>
    </g>
   </g>
   <g id="xtick_4">
    <g id="line2d_5">
     <path d="M 133.752658 241.54169 
L 131.600787 243.618741 
" style="fill: none; stroke: #000000; stroke-width: 0.8; stroke-linecap: square"/>
    </g>
   </g>
   <g id="xtick_5">
    <g id="line2d_6">
     <path d="M 167.485004 252.547788 
L 165.383544 254.674061 
" style="fill: none; stroke: #000000; stroke-width: 0.8; stroke-linecap: square"/>
    </g>
   </g>
  </g>
  <g id="axis3d_2">
   <g id="line2d_7">
    <path d="M 256.186401 175.022766 
L 176.775269 256.518123 
" style="fill: none; stroke: #000000; stroke-width: 0.8; stroke-linecap: square"/>
   </g>
   <g id="Line3DCollection_2">
    <path d="M 28.231283 90.356018 
L 33.346215 202.623628 
L 182.26748 250.881763 
" style="fill: none; stroke: #b0b0b0; stroke-width: 0.8"/>
    <path d="M 49.50686 74.830071 
L 53.601536 185.645216 
L 200.622134 232.045372 
" style="fill: none; stroke: #b0b0b0; stroke-width: 0.8"/>
    <path d="M 69.956326 59.906982 
L 73.103862 169.29798 
L 218.259156 213.945449 
" style="fill: none; stroke: #b0b0b0; stroke-width: 0.8"/>
    <path d="M 89.626881 45.552307 
L 91.894417 153.547365 
L 235.219825 196.539631 
" style="fill: none; stroke: #b0b0b0; stroke-width: 0.8"/>
    <path d="M 108.562196 31.734177 
L 110.011467 138.361294 
L 251.542314 179.788741 
" style="fill: none; stroke: #b0b0b0; stroke-width: 0.8"/>
   </g>
   <g id="xtick_6">
    <g id="line2d_8">
     <path d="M 181.012516 250.47509 
L 184.780654 251.696161 
" style="fill: none; stroke: #000000; stroke-width: 0.8; stroke-linecap: square"/>
    </g>
   </g>
   <g id="xtick_7">
    <g id="line2d_9">
     <path d="M 199.384439 231.654752 
L 203.100663 232.827604 
" style="fill: none; stroke: #000000; stroke-width: 0.8; stroke-linecap: square"/>
    </g>
   </g>
   <g id="xtick_8">
    <g id="line2d_10">
     <path d="M 217.03835 213.569949 
L 220.703801 214.697383 
" style="fill: none; stroke: #000000; stroke-width: 0.8; stroke-linecap: square"/>
    </g>
   </g>
   <g id="xtick_9">
    <g id="line2d_11">
     <path d="M 234.015536 196.178389 
L 237.631337 197.262994 
" style="fill: none; stroke: #000000; stroke-width: 0.8; stroke-linecap: square"/>
    </g>
   </g>
   <g id="xtick_10">
    <g id="line2d_12">
     <path d="M 250.354176 179.440962 
L 253.921433 180.485132 
" style="fill: none; stroke: #000000; stroke-width: 0.8; stroke-linecap: square"/>
    </g>
   </g>
  </g>
  <g id="axis3d_3">
   <g id="line2d_13">
    <path d="M 256.186401 175.022766 
L 261.218702 65.130171 
" style="fill: none; stroke: #000000; stroke-width: 0.8; stroke-linecap: square"/>
   </g>
   <g id="Line3DCollection_3">
    <path d="M 256.917993 159.046661 
L 114.994248 118.563461 
L 26.505446 191.337188 
" style="fill: none; stroke: #b0b0b0; stroke-width: 0.8"/>
    <path d="M 257.776147 140.306769 
L 114.785693 100.426951 
L 25.580815 172.136629 
" style="fill: none; stroke: #b0b0b0; stroke-width: 0.8"/>
    <path d="M 258.647427 121.280235 
L 114.574101 82.026387 
L 24.641497 152.631085 
" style="fill: none; stroke: #b0b0b0; stroke-width: 0.8"/>
    <path d="M 259.532137 101.960433 
L 114.359406 63.355962 
L 23.68714 132.813233 
" style="fill: none; stroke: #b0b0b0; stroke-width: 0.8"/>
    <path d="M 260.430589 82.340528 
L 114.141539 44.409694 
L 22.717378 112.675511 
" style="fill: none; stroke: #b0b0b0; stroke-width: 0.8"/>
   </g>
   <g id="xtick_11">
    <g id="line2d_14">
     <path d="M 255.726499 158.706792 
L 259.303833 159.727212 
" style="fill: none; stroke: #000000; stroke-width: 0.8; stroke-linecap: square"/>
    </g>
   </g>
   <g id="xtick_12">
    <g id="line2d_15">
     <path d="M 256.575269 139.971846 
L 260.1808 140.977423 
" style="fill: none; stroke: #000000; stroke-width: 0.8; stroke-linecap: square"/>
    </g>
   </g>
   <g id="xtick_13">
    <g id="line2d_16">
     <path d="M 257.437016 120.95045 
L 261.071191 121.940608 
" style="fill: none; stroke: #000000; stroke-width: 0.8; stroke-linecap: square"/>
    </g>
   </g>
   <g id="xtick_14">
    <g id="line2d_17">
     <path d="M 258.31204 101.635983 
L 261.975318 102.610126 
" style="fill: none; stroke: #000000; stroke-width: 0.8; stroke-linecap: square"/>
    </g>
   </g>
   <g id="xtick_15">
    <g id="line2d_18">
     <path d="M 259.200651 82.021621 
L 262.893501 82.979128 
" style="fill: none; stroke: #000000; stroke-width: 0.8; stroke-linecap: square"/>
    </g>
   </g>
  </g>
  <g id="axes_1">
   <g id="line2d_19">
    <path d="M 147.469355 224.760741 
L 149.01603 224.517565 
L 150.560556 224.257116 
L 152.102216 223.979436 
L 153.640293 223.684575 
L 155.174075 223.372593 
L 156.702851 223.043556 
L 158.225913 222.697543 
L 159.742558 222.334639 
L 161.252083 221.954937 
L 162.753794 221.55854 
L 164.247 221.14556 
L 165.731013 220.716117 
L 167.205155 220.270337 
L 168.66875 219.808358 
L 170.12113 219.330324 
L 171.561634 218.836387 
L 172.989609 218.326707 
L 174.404407 217.801452 
L 175.805391 217.260797 
L 177.19193 216.704926 
L 178.563403 216.134029 
L 179.919197 215.548303 
L 181.25871 214.947953 
L 182.581348 214.333189 
L 183.886527 213.704231 
L 185.173675 213.061303 
L 186.44223 212.404636 
L 187.691639 211.734466 
L 188.921362 211.051038 
L 190.130871 210.3546 
L 191.319648 209.645407 
L 192.487187 208.923719 
L 193.632997 208.189802 
L 194.756595 207.443926 
L 195.857514 206.686367 
L 196.935298 205.917405 
L 197.989504 205.137324 
L 199.019704 204.346415 
L 200.025481 203.544969 
L 201.006433 202.733284 
L 201.96217 201.911661 
L 202.892318 201.080404 
L 203.796513 200.239821 
L 204.67441 199.390223 
L 205.525673 198.531923 
L 206.349984 197.665237 
L 207.147037 196.790486 
L 207.91654 195.907989 
L 208.658217 195.01807 
L 209.371805 194.121055 
L 210.057054 193.217271 
L 210.713732 192.307046 
L 211.341618 191.39071 
L 211.940506 190.468595 
L 212.510204 189.541032 
L 213.050537 188.608355 
L 213.561341 187.670896 
L 214.042467 186.728991 
L 214.493781 185.782973 
L 214.915162 184.833176 
L 215.306503 183.879935 
L 215.667713 182.923584 
L 215.998711 181.964455 
L 216.299433 181.002883 
L 216.569827 180.039199 
L 216.809855 179.073735 
L 217.019493 178.10682 
L 217.198729 177.138784 
L 217.347565 176.169955 
L 217.466016 175.200658 
L 217.554109 174.231218 
L 217.611885 173.261958 
L 217.639396 172.293199 
L 217.636708 171.325259 
L 217.603899 170.358456 
L 217.541057 169.393103 
L 217.448286 168.429513 
L 217.325698 167.467996 
L 217.173418 166.508858 
L 216.991583 165.552403 
L 216.78034 164.598933 
L 216.539848 163.648746 
L 216.270276 162.702137 
L 215.971805 161.7594 
L 215.644626 160.820823 
L 215.288939 159.886693 
L 214.904956 158.957291 
L 214.492898 158.032896 
L 214.052995 157.113785 
L 213.585489 156.20023 
L 213.090628 155.292498 
L 212.568672 154.390855 
L 212.019889 153.495562 
L 211.444555 152.606874 
L 210.842956 151.725047 
L 210.215385 150.850329 
L 209.562144 149.982965 
L 208.883542 149.123196 
L 208.179899 148.271261 
" clip-path="url(#pef426db21e)" style="fill: none; stroke: #808080; stroke-width: 3; stroke-linecap: square"/>
   </g>
   <g id="line2d_20">
    <path d="M 208.179899 148.271261 
L 208.055466 147.774959 
L 207.931019 147.2786 
L 207.806557 146.782183 
L 207.682081 146.28571 
L 207.557591 145.789181 
L 207.433087 145.292594 
L 207.308569 144.79595 
L 207.184036 144.299249 
L 207.059489 143.802491 
L 206.934927 143.305676 
L 206.810351 142.808804 
L 206.685761 142.311876 
L 206.561157 141.81489 
L 206.436538 141.317847 
L 206.311905 140.820747 
L 206.187258 140.32359 
L 206.062597 139.826376 
L 205.937921 139.329105 
L 205.813231 138.831776 
L 205.688526 138.334391 
L 205.563807 137.836949 
L 205.439074 137.339449 
L 205.314327 136.841893 
L 205.189565 136.344279 
L 205.064789 135.846608 
L 204.939998 135.34888 
L 204.815194 134.851095 
L 204.690375 134.353252 
L 204.565541 133.855353 
L 204.440693 133.357396 
L 204.315831 132.859382 
L 204.190955 132.361311 
L 204.066064 131.863182 
L 203.941159 131.364996 
L 203.816239 130.866754 
L 203.691306 130.368453 
L 203.566357 129.870096 
L 203.441395 129.371681 
L 203.316418 128.873209 
L 203.191427 128.37468 
L 203.066421 127.876094 
L 202.941401 127.37745 
L 202.816367 126.878749 
L 202.691318 126.37999 
L 202.566255 125.881174 
L 202.441177 125.382301 
L 202.316085 124.88337 
L 202.190979 124.384383 
L 202.065858 123.885337 
L 201.940723 123.386235 
L 201.815574 122.887074 
L 201.69041 122.387857 
L 201.565232 121.888582 
L 201.440039 121.38925 
L 201.314832 120.88986 
L 201.18961 120.390413 
L 201.064375 119.890908 
L 200.939124 119.391346 
L 200.81386 118.891726 
L 200.688581 118.392049 
L 200.563287 117.892314 
L 200.437979 117.392522 
L 200.312657 116.892673 
L 200.18732 116.392765 
L 200.061969 115.892801 
L 199.936603 115.392778 
L 199.811223 114.892699 
L 199.685829 114.392561 
L 199.56042 113.892366 
L 199.434996 113.392114 
L 199.309559 112.891803 
L 199.184106 112.391436 
L 199.05864 111.89101 
L 198.933159 111.390527 
L 198.807663 110.889987 
L 198.682153 110.389388 
L 198.556628 109.888732 
L 198.431089 109.388019 
L 198.305536 108.887247 
L 198.179968 108.386418 
L 198.054386 107.885532 
L 197.928789 107.384587 
L 197.803178 106.883585 
L 197.677552 106.382525 
L 197.551912 105.881408 
L 197.426257 105.380233 
L 197.300588 104.878999 
L 197.174904 104.377709 
L 197.049206 103.87636 
L 196.923493 103.374954 
L 196.797766 102.873489 
L 196.672025 102.371967 
L 196.546268 101.870387 
L 196.420498 101.36875 
L 196.294713 100.867054 
L 196.168913 100.365301 
L 196.043099 99.86349 
L 195.91727 99.361621 
L 195.791427 98.859694 
" clip-path="url(#pef426db21e)" style="fill: none; stroke-dasharray: 7.4,3.2; stroke-dashoffset: 0; stroke: #800080; stroke-width: 2"/>
   </g>
   <g id="line2d_21">
    <path d="M 195.791427 98.859694 
L 193.798835 97.592973 
L 191.74268 96.363885 
L 189.625742 95.173367 
L 187.450854 94.02231 
L 185.220895 92.911551 
L 182.938789 91.841878 
L 180.607501 90.814027 
L 178.230032 89.828683 
L 175.809423 88.886484 
L 173.348742 87.988012 
L 170.851092 87.133804 
L 168.3196 86.324344 
L 165.757418 85.560065 
L 163.167721 84.841353 
L 160.553705 84.168544 
L 157.918581 83.541921 
L 155.265577 82.961722 
L 152.597934 82.428134 
L 149.918902 81.941294 
L 147.231741 81.501292 
L 144.539718 81.108167 
L 141.846102 80.761911 
L 139.154167 80.462468 
L 136.467184 80.20973 
L 133.788423 80.003544 
L 131.121152 79.843708 
L 128.468628 79.72997 
L 125.834104 79.662032 
L 123.220818 79.639546 
L 120.631998 79.662117 
L 118.070855 79.7293 
L 115.540582 79.840604 
L 113.044352 79.995489 
L 110.585315 80.193366 
L 108.166597 80.433598 
L 105.791295 80.715502 
L 103.462474 81.038344 
L 101.183167 81.401344 
L 98.956371 81.803674 
L 96.785041 82.244456 
L 94.672094 82.722766 
L 92.620396 83.237634 
L 90.632767 83.788039 
L 88.711975 84.372915 
L 86.86073 84.99115 
L 85.081684 85.641582 
L 83.377425 86.323007 
L 81.750474 87.034172 
L 80.203282 87.773781 
L 78.738225 88.540492 
L 77.357597 89.332919 
L 76.063613 90.149633 
L 74.858399 90.989162 
L 73.743989 91.849995 
L 72.72232 92.730576 
L 71.795231 93.629315 
L 70.964455 94.544579 
L 70.231614 95.474701 
L 69.59822 96.417978 
L 69.065664 97.372674 
L 68.635215 98.337018 
L 68.308016 99.309213 
L 68.085077 100.287431 
L 67.967273 101.269819 
L 67.955341 102.254499 
L 68.049872 103.239574 
L 68.251311 104.223124 
L 68.55995 105.203216 
L 68.975927 106.177903 
L 69.499222 107.145226 
L 70.129654 108.103219 
L 70.866876 109.049911 
L 71.710375 109.983331 
L 72.659469 110.901509 
L 73.713305 111.802481 
L 74.870857 112.684293 
L 76.130923 113.545002 
L 77.492129 114.382684 
L 78.952924 115.195433 
L 80.511582 115.98137 
L 82.1662 116.738643 
L 83.914704 117.465432 
L 85.754843 118.159954 
L 87.684198 118.820465 
L 89.700179 119.445269 
L 91.800031 120.032713 
L 93.980836 120.5812 
L 96.239514 121.089188 
L 98.572836 121.555195 
L 100.977417 121.977802 
L 103.44973 122.355658 
L 105.986111 122.687483 
L 108.582759 122.972069 
L 111.23575 123.208288 
L 113.941041 123.395091 
L 116.694478 123.531512 
L 119.491803 123.616671 
L 122.328664 123.649776 
L 125.200624 123.630126 
" clip-path="url(#pef426db21e)" style="fill: none; stroke: #0000ff; stroke-width: 3; stroke-linecap: square"/>
   </g>
   <g id="Path3DCollection_1">
    <defs>
     <path id="mbeed0f5d84" d="M 0 3.535534 
C 0.937635 3.535534 1.836992 3.163008 2.5 2.5 
C 3.163008 1.836992 3.535534 0.937635 3.535534 0 
C 3.535534 -0.937635 3.163008 -1.836992 2.5 -2.5 
C 1.836992 -3.163008 0.937635 -3.535534 0 -3.535534 
C -0.937635 -3.535534 -1.836992 -3.163008 -2.5 -2.5 
C -3.163008 -1.836992 -3.535534 -0.937635 -3.535534 0 
C -3.535534 0.937635 -3.163008 1.836992 -2.5 2.5 
C -1.836992 3.163008 -0.937635 3.535534 0 3.535534 
z
" style="stroke: #000000"/>
    </defs>
    <g clip-path="url(#pef426db21e)">
     <use xlink:href="#mbeed0f5d84" x="208.179899" y="148.271261" style="stroke: #000000"/>
    </g>
   </g>
   <g id="text_1">
    <!-- $t_0$ -->
    <g transform="translate(147.483875 215.113816)scale(0.2 -0.2)">
     <defs>
      <path id="DejaVuSans-Oblique-74" d="M 2706 3500 
L 2619 3053 
L 1472 3053 
L 1100 1153 
Q 1081 1047 1072 975 
Q 1063 903 1063 863 
Q 1063 663 1183 572 
Q 1303 481 1569 481 
L 2150 481 
L 2053 0 
L 1503 0 
Q 991 0 739 200 
Q 488 400 488 806 
Q 488 878 497 964 
Q 506 1050 525 1153 
L 897 3053 
L 409 3053 
L 500 3500 
L 978 3500 
L 1172 4494 
L 1747 4494 
L 1556 3500 
L 2706 3500 
z
" transform="scale(0.015625)"/>
      <path id="DejaVuSans-30" d="M 2034 4250 
Q 1547 4250 1301 3770 
Q 1056 3291 1056 2328 
Q 1056 1369 1301 889 
Q 1547 409 2034 409 
Q 2525 409 2770 889 
Q 3016 1369 3016 2328 
Q 3016 3291 2770 3770 
Q 2525 4250 2034 4250 
z
M 2034 4750 
Q 2819 4750 3233 4129 
Q 3647 3509 3647 2328 
Q 3647 1150 3233 529 
Q 2819 -91 2034 -91 
Q 1250 -91 836 529 
Q 422 1150 422 2328 
Q 422 3509 836 4129 
Q 1250 4750 2034 4750 
z
" transform="scale(0.015625)"/>
     </defs>
     <use xlink:href="#DejaVuSans-Oblique-74" transform="translate(0 0.78125)"/>
     <use xlink:href="#DejaVuSans-30" transform="translate(39.208984 -15.625)scale(0.7)"/>
    </g>
   </g>
   <g id="text_2">
    <!-- $t_1^-$ -->
    <g transform="translate(208.4236 138.876559)scale(0.2 -0.2)">
     <defs>
      <path id="DejaVuSans-2212" d="M 678 2272 
L 4684 2272 
L 4684 1741 
L 678 1741 
L 678 2272 
z
" transform="scale(0.015625)"/>
      <path id="DejaVuSans-31" d="M 794 531 
L 1825 531 
L 1825 4091 
L 703 3866 
L 703 4441 
L 1819 4666 
L 2450 4666 
L 2450 531 
L 3481 531 
L 3481 0 
L 794 0 
L 794 531 
z
" transform="scale(0.015625)"/>
     </defs>
     <use xlink:href="#DejaVuSans-Oblique-74" transform="translate(0 0.78125)"/>
     <use xlink:href="#DejaVuSans-2212" transform="translate(59.487201 39.0625)scale(0.7)"/>
     <use xlink:href="#DejaVuSans-31" transform="translate(39.208984 -26.5625)scale(0.7)"/>
    </g>
   </g>
   <g id="text_3">
    <!-- $t_1^+$ -->
    <g transform="translate(195.989323 89.222893)scale(0.2 -0.2)">
     <defs>
      <path id="DejaVuSans-2b" d="M 2944 4013 
L 2944 2272 
L 4684 2272 
L 4684 1741 
L 2944 1741 
L 2944 0 
L 2419 0 
L 2419 1741 
L 678 1741 
L 678 2272 
L 2419 2272 
L 2419 4013 
L 2944 4013 
z
" transform="scale(0.015625)"/>
     </defs>
     <use xlink:href="#DejaVuSans-Oblique-74" transform="translate(0 0.826562)"/>
     <use xlink:href="#DejaVuSans-2b" transform="translate(59.487201 39.107813)scale(0.7)"/>
     <use xlink:href="#DejaVuSans-31" transform="translate(39.208984 -26.517188)scale(0.7)"/>
    </g>
   </g>
   <g id="text_4">
    <!-- $t_2$ -->
    <g transform="translate(125.122728 113.170316)scale(0.2 -0.2)">
     <defs>
      <path id="DejaVuSans-32" d="M 1228 531 
L 3431 531 
L 3431 0 
L 469 0 
L 469 531 
Q 828 903 1448 1529 
Q 2069 2156 2228 2338 
Q 2531 2678 2651 2914 
Q 2772 3150 2772 3378 
Q 2772 3750 2511 3984 
Q 2250 4219 1831 4219 
Q 1534 4219 1204 4116 
Q 875 4013 500 3803 
L 500 4441 
Q 881 4594 1212 4672 
Q 1544 4750 1819 4750 
Q 2544 4750 2975 4387 
Q 3406 4025 3406 3419 
Q 3406 3131 3298 2873 
Q 3191 2616 2906 2266 
Q 2828 2175 2409 1742 
Q 1991 1309 1228 531 
z
" transform="scale(0.015625)"/>
     </defs>
     <use xlink:href="#DejaVuSans-Oblique-74" transform="translate(0 0.78125)"/>
     <use xlink:href="#DejaVuSans-32" transform="translate(39.208984 -15.625)scale(0.7)"/>
    </g>
   </g>
   <g id="text_5">
    <!-- $\mathbf{x}(t)$ -->
    <g transform="translate(7.2 60.4224)scale(0.2 -0.2)">
     <defs>
      <path id="DejaVuSans-Bold-78" d="M 1422 1791 
L 159 3500 
L 1344 3500 
L 2059 2463 
L 2784 3500 
L 3969 3500 
L 2706 1797 
L 4031 0 
L 2847 0 
L 2059 1106 
L 1281 0 
L 97 0 
L 1422 1791 
z
" transform="scale(0.015625)"/>
      <path id="DejaVuSans-28" d="M 1984 4856 
Q 1566 4138 1362 3434 
Q 1159 2731 1159 2009 
Q 1159 1288 1364 580 
Q 1569 -128 1984 -844 
L 1484 -844 
Q 1016 -109 783 600 
Q 550 1309 550 2009 
Q 550 2706 781 3412 
Q 1013 4119 1484 4856 
L 1984 4856 
z
" transform="scale(0.015625)"/>
      <path id="DejaVuSans-29" d="M 513 4856 
L 1013 4856 
Q 1481 4119 1714 3412 
Q 1947 2706 1947 2009 
Q 1947 1309 1714 600 
Q 1481 -109 1013 -844 
L 513 -844 
Q 928 -128 1133 580 
Q 1338 1288 1338 2009 
Q 1338 2731 1133 3434 
Q 928 4138 513 4856 
z
" transform="scale(0.015625)"/>
     </defs>
     <use xlink:href="#DejaVuSans-Bold-78" transform="translate(0 0.125)"/>
     <use xlink:href="#DejaVuSans-28" transform="translate(64.501953 0.125)"/>
     <use xlink:href="#DejaVuSans-Oblique-74" transform="translate(103.515625 0.125)"/>
     <use xlink:href="#DejaVuSans-29" transform="translate(142.724609 0.125)"/>
    </g>
   </g>
   <g id="Path3DCollection_2">
    <g clip-path="url(#pef426db21e)">
     <use xlink:href="#mbeed0f5d84" x="195.791427" y="98.859694" style="stroke: #000000"/>
    </g>
   </g>
   <g id="Path3DCollection_3">
    <g clip-path="url(#pef426db21e)">
     <use xlink:href="#mbeed0f5d84" x="147.469355" y="224.760741" style="stroke: #000000"/>
    </g>
   </g>
   <g id="Path3DCollection_4">
    <g clip-path="url(#pef426db21e)">
     <use xlink:href="#mbeed0f5d84" x="125.200624" y="123.630126" style="stroke: #000000"/>
    </g>
   </g>
  </g>
 </g>
 <defs>
  <clipPath id="pef426db21e">
   <rect x="7.2" y="7.2" width="266.112" height="266.112"/>
  </clipPath>
 </defs>
</svg>
